<?xml version="1.0" encoding="UTF-8"?>
<!DOCTYPE svg PUBLIC "-//W3C//DTD SVG 1.1//EN" "http://www.w3.org/Graphics/SVG/1.1/DTD/svg11.dtd">
<!-- Creator: CorelDRAW X7 -->
<svg xmlns="http://www.w3.org/2000/svg" xml:space="preserve" width="6.514in" height="7.24in" version="1.1" style="shape-rendering:geometricPrecision; text-rendering:geometricPrecision; image-rendering:optimizeQuality; fill-rule:evenodd; clip-rule:evenodd"
viewBox="0 0 6514 7240"
 xmlns:xlink="http://www.w3.org/1999/xlink">
 <defs>
  <style type="text/css">
   <![CDATA[
    .fil0 {fill:#798492}
    .fil2 {fill:#8695A8}
    .fil1 {fill:#B6BFCC}
   ]]>
  </style>
 </defs>
 <g id="Settings">
  <metadata id="CorelCorpID_0Corel-Layer"/>
  <path class="fil0" d="M1388 5247c90,-335 434,-534 770,-444 335,90 534,434 444,770 -90,335 -434,534 -770,444 -335,-90 -534,-434 -444,-770zm1396 -1053c-57,-37 -116,-69 -178,-98l26 -381c-55,-20 -111,-38 -168,-54 -58,-15 -115,-28 -173,-37l-168 343c-68,-7 -136,-8 -203,-5l-154 -349c-117,15 -232,41 -343,78l10 381c-62,26 -123,57 -181,91l-299 -238c-96,67 -186,144 -268,228l186 333c-43,52 -82,107 -118,165l-375 -72c-54,103 -98,212 -132,327l320 208c-14,67 -23,135 -28,201l-366 111c1,119 13,236 36,351l380 35c18,65 41,129 68,191l-272 268c55,104 120,202 195,294l353 -145c46,49 96,95 149,137l-117 364c96,66 199,123 309,170l245 -293c32,11 64,21 97,30 33,9 66,16 99,23l66 376c118,14 236,16 352,7l81 -373c68,-10 134,-25 198,-45l233 303c110,-43 216,-96 316,-158l-102 -368c54,-40 106,-84 155,-131l347 159c77,-87 146,-183 206,-286l-262 -279c30,-60 55,-122 76,-188l381 -20c29,-116 45,-233 50,-349l-360 -125c-3,-68 -9,-136 -21,-202l328 -195c-29,-115 -68,-226 -118,-332l-378 57c-33,-59 -71,-116 -112,-169l201 -326c-78,-87 -165,-167 -259,-239l-308 226z"/>
  <path class="fil1" d="M0 3264l396 100c5,134 19,266 42,395l-369 170c37,176 89,348 153,512l406 -50c51,119 110,235 177,345l-283 291c99,152 209,294 330,427l360 -193c88,90 183,174 282,252l-158 375c145,106 300,201 463,282l265 -310c113,52 229,97 349,134l-12 406c173,47 352,81 535,99l135 -385c62,4 124,6 186,6 62,0 124,-2 186,-6l135 385c183,-18 362,-52 535,-99l-12 -406c120,-37 236,-82 349,-134l265 310c163,-81 318,-176 463,-282l-158 -375c99,-78 194,-162 282,-252l360 193c121,-133 231,-275 330,-427l-283 -291c67,-110 126,-226 177,-345l406 50c64,-164 116,-336 153,-512l-369 -170c23,-129 37,-261 42,-395l396 -100 0 -7c0,-177 -14,-351 -42,-521l-404 -25c-26,-135 -62,-267 -106,-395l333 -236c-64,-164 -141,-322 -229,-472l-387 123c-74,-118 -157,-231 -248,-336l225 -340c-117,-128 -245,-247 -381,-355l-317 254c-114,-84 -234,-160 -359,-226l87 -399c-155,-75 -316,-139 -483,-189l-203 352c-137,-37 -278,-64 -422,-80l-62 -402c-86,-6 -172,-10 -259,-10 -87,0 -173,3 -259,10l-62 402c-144,16 -285,43 -422,80l-203 -352c-167,50 -328,114 -483,189l87 399c-125,66 -246,142 -359,226l-317 -254c-136,108 -264,227 -381,355l225 340c-91,105 -174,218 -248,336l-387 -123c-88,150 -165,308 -229,472l333 236c-44,128 -80,260 -106,395l-404 25c-28,170 -42,344 -42,521l0 7zm1183 -15c0,-1145 929,-2074 2074,-2074 1145,0 2074,929 2074,2074 0,1146 -929,2074 -2074,2074 -1145,0 -2074,-928 -2074,-2074z"/>
  <path class="fil2" d="M2591 5211c38,113 44,238 11,362 -47,176 -165,315 -315,394l-507 1260c118,14 236,16 352,7l81 -373c68,-10 134,-25 198,-45l233 303c110,-43 216,-96 316,-158l-102 -368c54,-40 106,-84 155,-131l347 159c77,-87 146,-183 206,-286l-262 -279c30,-60 55,-122 76,-188l381 -20c29,-116 45,-233 50,-349l-360 -125c-3,-68 -9,-136 -21,-202l328 -195c-29,-115 -68,-226 -118,-332l-378 57c-33,-59 -71,-116 -112,-169l201 -326c-78,-87 -165,-167 -259,-239l-501 1243z"/>
 </g>
</svg>
