<?xml version="1.0" encoding="UTF-8"?>
<!DOCTYPE svg PUBLIC "-//W3C//DTD SVG 1.1//EN" "http://www.w3.org/Graphics/SVG/1.1/DTD/svg11.dtd">
<!-- Creator: CorelDRAW X7 -->
<svg xmlns="http://www.w3.org/2000/svg" xml:space="preserve" width="5.421in" height="9.493in" version="1.1" style="shape-rendering:geometricPrecision; text-rendering:geometricPrecision; image-rendering:optimizeQuality; fill-rule:evenodd; clip-rule:evenodd"
viewBox="0 0 5421 9493"
 xmlns:xlink="http://www.w3.org/1999/xlink">
 <defs>
  <style type="text/css">
   <![CDATA[
    .str0 {stroke:#ABB8C9;stroke-width:27.7756}
    .fil2 {fill:none}
    .fil1 {fill:#95A4B8}
    .fil0 {fill:#A9B6C7}
   ]]>
  </style>
 </defs>
 <g id="Chat_x0020_disabledb">
  <metadata id="CorelCorpID_0Corel-Layer"/>
  <path class="fil0" d="M4510 933c-98,908 -866,1614 -1799,1614 -932,0 -1700,-704 -1800,-1609 -3,-28 -5,-55 -7,-83 0,-2 0,-4 0,-4 0,-215 -197,-318 -448,-318 -252,0 -456,164 -456,379 2,25 4,50 6,74 87,956 670,1768 1488,2179l146 2248 0 3690c0,216 203,390 453,390 250,0 453,-174 453,-390l0 -3107 165 0 164 0 0 3107c0,216 203,390 453,390 250,0 453,-174 453,-390l0 -3690 146 -2248c816,-410 1398,-1219 1487,-2171 3,-30 5,-60 7,-90 0,-215 -203,-371 -455,-371 -252,0 -449,107 -449,322 0,0 0,1 0,3 0,0 0,0 0,0 -1,15 -7,72 -7,75z"/>
  <path class="fil0" d="M2711 2240c618,0 1120,-501 1120,-1120 0,-619 -502,-1120 -1120,-1120 -619,0 -1121,501 -1121,1120 0,619 502,1120 1121,1120z"/>
  <path class="fil1" d="M3768 2206l-1222 3790 165 0 164 0 0 3107c0,216 203,390 453,390 250,0 453,-174 453,-390l0 -3690 146 -2248c816,-410 1398,-1219 1487,-2171 3,-30 5,-60 7,-90 0,-215 -203,-371 -455,-371 -252,0 -449,107 -449,322 0,0 0,1 0,3 -2,25 -4,50 -7,75 -56,524 -336,981 -742,1273z"/>
  <path class="fil1" d="M2546 5996l-906 2807 0 300c0,216 203,390 453,390 250,0 453,-174 453,-390l0 -3107z"/>
 </g>
 <g id="ChatDisabled">
  <metadata id="CorelCorpID_1Corel-Layer"/>
  <circle class="fil2 str0" cx="2711" cy="1120" r="1120"/>
  <path class="fil2 str0" d="M4517 855c-61,945 -846,1692 -1806,1692 -962,0 -1748,-750 -1807,-1696m-904 61c64,988 654,1832 1494,2253l146 2248 0 3690c0,216 203,390 453,390 250,0 453,-174 453,-390l0 -3107 165 0 164 0 0 3107c0,216 203,390 453,390 250,0 453,-174 453,-390l0 -3690 146 -2248c842,-422 1434,-1270 1494,-2261m-5415 82c-4,-20 -6,-52 -6,-74 0,-215 204,-379 456,-379 251,0 448,103 448,318 0,5 7,82 7,87m3599 -5c0,-3 7,-75 7,-78 0,-215 197,-322 449,-322 252,0 455,156 455,371 0,24 -2,67 -7,90"/>
 </g>
</svg>
