<?xml version="1.0" encoding="UTF-8"?>
<!DOCTYPE svg PUBLIC "-//W3C//DTD SVG 1.1//EN" "http://www.w3.org/Graphics/SVG/1.1/DTD/svg11.dtd">
<!-- Creator: CorelDRAW X7 -->
<svg xmlns="http://www.w3.org/2000/svg" xml:space="preserve" width="8.269in" height="8.473in" version="1.1" style="shape-rendering:geometricPrecision; text-rendering:geometricPrecision; image-rendering:optimizeQuality; fill-rule:evenodd; clip-rule:evenodd"
viewBox="0 0 8269 8473"
 xmlns:xlink="http://www.w3.org/1999/xlink">
 <defs>
  <style type="text/css">
   <![CDATA[
    .str0 {stroke:#ABB8C9;stroke-width:27.7756}
    .fil2 {fill:none}
    .fil1 {fill:#95A4B8}
    .fil0 {fill:#A9B6C7}
   ]]>
  </style>
 </defs>
 <g id="SupportIconb">
  <metadata id="CorelCorpID_0Corel-Layer"/>
  <path class="fil0" d="M5249 1216c996,0 1804,808 1804,1804 0,997 -808,1804 -1804,1804 -304,0 -590,-75 -842,-207 -97,169 -212,346 -345,505 205,116 429,203 666,255l983 319 58 -319c281,-61 543,-172 778,-322l533 367c214,-164 407,-356 571,-571l-368 -532c150,-235 261,-497 323,-778l636 -117c18,-132 27,-267 27,-404 0,-137 -9,-271 -27,-403l-636 -117c-62,-281 -173,-543 -323,-778l368 -533c-164,-214 -357,-407 -571,-571l-533 368c-235,-150 -497,-261 -778,-323l-117 -636c-132,-18 -266,-27 -403,-27 -137,0 -272,9 -404,27l-117 636c-281,62 -543,173 -778,323l-532 -368c-199,152 -378,327 -533,522 57,-5 115,-7 173,-7 444,0 851,150 1170,400 290,-200 642,-317 1021,-317z"/>
  <path class="fil0" d="M6413 3020c0,-643 -521,-1164 -1164,-1164 -216,0 -418,58 -591,160 159,262 250,566 250,890 0,46 -2,91 -6,136 103,40 144,86 144,426 0,339 -8,578 -348,579 164,88 351,138 551,138 643,0 1164,-521 1164,-1165z"/>
  <path class="fil0" d="M1791 3889c180,404 607,1368 1312,1368 705,0 1132,-964 1311,-1368 275,0 281,-200 281,-483 0,-284 -33,-323 -115,-356 3,-38 4,-75 4,-113 0,-819 -663,-1482 -1481,-1482 -818,0 -1482,663 -1482,1482 0,38 2,75 5,113 -82,33 -115,72 -115,356 0,283 6,483 280,483z"/>
  <path class="fil0" d="M2780 5780l-60 1021 -788 -1212c-914,316 -1422,376 -1697,944 -274,567 -239,746 -227,908 12,161 168,334 251,388 84,54 1231,644 2856,644 1624,0 2771,-590 2855,-644 84,-54 239,-227 251,-388 12,-162 48,-341 -227,-908 -275,-568 -783,-628 -1697,-944l-788 1212 -60 -1021 -334 0 -335 0z"/>
  <path class="fil1" d="M5994 6533c-275,-568 -783,-628 -1697,-944l-788 1212 -49 -840 -805 2496c148,11 302,16 460,16 1624,0 2771,-590 2855,-644 84,-54 239,-227 251,-388 12,-162 48,-341 -227,-908z"/>
  <path class="fil1" d="M4728 5377l983 319 58 -319c281,-61 543,-172 778,-322l533 367c214,-164 407,-356 571,-571l-368 -532c150,-235 261,-497 323,-778l636 -117c18,-132 27,-267 27,-404 0,-137 -9,-271 -27,-403l-636 -117c-62,-281 -173,-543 -323,-778l368 -533c-164,-214 -357,-407 -571,-571l-533 368c-235,-150 -497,-261 -778,-323l-117 -636c-89,-12 -179,-20 -271,-24l-397 1233c86,-13 175,-20 265,-20 996,0 1804,808 1804,1804 0,997 -808,1804 -1804,1804 -304,0 -590,-75 -842,-207 -97,169 -212,346 -345,505 205,116 429,203 666,255z"/>
  <path class="fil1" d="M4426 3889c275,0 281,-200 281,-483 0,-284 -33,-323 -115,-356 3,-38 4,-75 4,-113 0,-125 -15,-246 -44,-362l-760 2356c313,-318 522,-790 634,-1042z"/>
  <path class="fil1" d="M5046 3468c0,339 -8,578 -348,579 164,88 351,138 551,138 643,0 1164,-521 1164,-1165 0,-643 -521,-1164 -1164,-1164 -180,0 -350,40 -502,113l-42 130c130,242 203,516 203,807 0,46 -2,91 -6,136 103,40 144,86 144,426z"/>
 </g>
 <g id="SupportIcon">
  <metadata id="CorelCorpID_1Corel-Layer"/>
  <path class="fil2 str0" d="M4592 3050c3,-38 4,-75 4,-113 0,-819 -663,-1482 -1481,-1482 -819,0 -1482,663 -1482,1482 0,38 2,75 4,113 -81,33 -114,72 -114,356 0,283 6,483 280,483 180,404 607,1368 1312,1368 704,0 1132,-964 1311,-1368 275,0 281,-200 281,-483 0,-284 -33,-323 -115,-356z"/>
  <path class="fil2 str0" d="M3115 8473c-1625,0 -2772,-590 -2856,-644 -83,-54 -239,-227 -251,-388 -12,-162 -47,-341 227,-908 275,-568 783,-628 1697,-944l788 1212 60 -1021 335 0 334 0 60 1021 788 -1212c914,316 1422,376 1697,944 275,567 239,746 227,908 -12,161 -167,334 -251,388 -84,54 -1231,644 -2855,644z"/>
  <path class="fil2 str0" d="M4228 1533c290,-200 642,-317 1021,-317 996,0 1804,808 1804,1804 0,997 -808,1804 -1804,1804 -304,0 -590,-75 -842,-207 -97,169 -212,346 -345,505 205,116 429,203 666,255l983 319 58 -319c281,-61 543,-172 778,-322l533 367c214,-164 407,-356 571,-571l-368 -532c150,-235 261,-497 323,-778l636 -117c18,-132 27,-267 27,-404 0,-137 -9,-271 -27,-403l-636 -117c-62,-281 -173,-543 -323,-778l368 -533c-164,-214 -357,-407 -571,-571l-533 368c-235,-150 -497,-261 -778,-323l-117 -636c-132,-18 -266,-27 -403,-27 -137,0 -272,9 -404,27l-117 636c-281,62 -543,173 -778,323l-532 -368c-199,152 -378,327 -533,522 57,-5 115,-7 173,-7 444,0 851,150 1170,400zm430 483c173,-102 375,-160 591,-160 643,0 1164,521 1164,1164 0,644 -521,1165 -1164,1165 -200,0 -387,-50 -551,-138 340,-1 348,-240 348,-579 0,-340 -41,-386 -144,-426 4,-45 6,-90 6,-136 0,-324 -91,-628 -250,-890z"/>
 </g>
</svg>
