<?xml version="1.0" encoding="UTF-8"?>
<!DOCTYPE svg PUBLIC "-//W3C//DTD SVG 1.1//EN" "http://www.w3.org/Graphics/SVG/1.1/DTD/svg11.dtd">
<!-- Creator: CorelDRAW X7 -->
<svg xmlns="http://www.w3.org/2000/svg" xml:space="preserve" width="8.484in" height="8.484in" version="1.1" style="shape-rendering:geometricPrecision; text-rendering:geometricPrecision; image-rendering:optimizeQuality; fill-rule:evenodd; clip-rule:evenodd"
viewBox="0 0 8484 8484"
 xmlns:xlink="http://www.w3.org/1999/xlink">
 <defs>
  <style type="text/css">
   <![CDATA[
    .str0 {stroke:#ABB8C9;stroke-width:27.7756}
    .fil2 {fill:none}
    .fil0 {fill:#95A4B8}
    .fil1 {fill:#A9B6C7}
   ]]>
  </style>
 </defs>
 <g id="Userb">
  <metadata id="CorelCorpID_0Corel-Layer"/>
  <path class="fil0" d="M1570 6912c412,-1073 1453,-1835 2672,-1835 1219,0 2260,762 2672,1835 -684,684 -1628,1108 -2672,1108 -1044,0 -1988,-424 -2672,-1108zm2672 -2243c-832,0 -1506,-675 -1506,-1506 0,-832 674,-1506 1506,-1506 832,0 1506,674 1506,1506 0,831 -674,1506 -1506,1506zm0 -4669c-2343,0 -4242,1899 -4242,4242 0,2343 1899,4242 4242,4242 2343,0 4242,-1899 4242,-4242 0,-2343 -1899,-4242 -4242,-4242z"/>
  <path class="fil1" d="M2736 3163c0,-832 674,-1506 1506,-1506 342,0 657,113 909,305l552 -1704c-456,-167 -948,-258 -1461,-258 -1126,0 -2150,439 -2909,1155 -91,135 -191,262 -300,382l-40 -22c-620,737 -993,1689 -993,2727 0,1944 1308,3583 3092,4084l144 -442c-640,-176 -1211,-516 -1666,-972 401,-1044 1397,-1794 2573,-1834l133 -410c-11,1 -23,1 -34,1 -832,0 -1506,-675 -1506,-1506z"/>
 </g>
 <g id="User">
  <metadata id="CorelCorpID_1Corel-Layer"/>
  <path class="fil2 str0" d="M4242 0c2343,0 4242,1899 4242,4242 0,2343 -1899,4242 -4242,4242 -2343,0 -4242,-1899 -4242,-4242 0,-2343 1899,-4242 4242,-4242zm0 1657c832,0 1506,674 1506,1506 0,831 -674,1506 -1506,1506 -832,0 -1506,-675 -1506,-1506 0,-832 674,-1506 1506,-1506zm2672 5255c-684,684 -1628,1108 -2672,1108 -1044,0 -1988,-424 -2672,-1108 412,-1073 1453,-1835 2672,-1835 1219,0 2260,762 2672,1835z"/>
 </g>
</svg>
